:SAMPLES-PER-SECOND 30
:FULLY-SPECIFIED
:DEGREES
421
root  -12.7344 34.5957 -17.2549 -170.79 0.650208 -179.984
RightUpLeg  -9.04545 -14.3477 -0.537261
RightLeg  6.01525 -0.939316 -0.0371186
RightFoot  4.11375 0.00998769 0.0752697
RightToes  -23.6903 -0.108165 -0.209785
Spine  -2.67199 0.272598 0.275587
Spine1  -5.43492 0.64002 1.09426
HEad  -64.8527 2.36007 3.9929
LeftShoulder1  -1.94126e-019 -3.10601e-018 -2.51263e-017
LeftArm  -11.5455 25.2811 -83.1332
LeftForeArm  32.0371 -14.6681 -2.42107
LeftHand  -0.293012 -0.582029 5.86566
RightShoulder  -4.96962e-017 0 -2.36833e-017
RightArm  -25.4397 -24.6684 77.6642
RightForeArm  47.1532 14.7146 1.34992
RightHand  -0.202678 -2.79711 -8.43439
LeftUpLeg  -7.73641 3.7711 1.08463
LeftLeg  6.53027 13.2503 0.652493
LeftFoot  3.34032 -0.0267676 0.908707
LeftToes  -18.6716 1.48347e-006 1.01831e-007
422
root  -12.7211 34.5982 -17.2584 -170.762 0.44902 -179.972
RightUpLeg  -9.02508 -14.4347 -0.48971
RightLeg  5.98944 -1.03773 -0.0406521
RightFoot  4.08386 0.0103495 0.070099
RightToes  -23.5897 -0.108165 -0.209785
Spine  -2.67393 0.269455 0.276109
Spine1  -5.43845 0.637407 1.09586
HEad  -64.8698 2.45553 3.72732
LeftShoulder1  -1.94126e-019 -3.10601e-018 -2.51263e-017
LeftArm  -11.54 25.2829 -83.076
LeftForeArm  32.1063 -14.5956 -2.41199
LeftHand  -0.294194 -0.694089 5.72188
RightShoulder  -4.96962e-017 0 -2.36833e-017
RightArm  -25.2691 -24.616 77.6883
RightForeArm  47.077 14.8478 1.34248
RightHand  -0.203598 -2.76867 -8.3897
LeftUpLeg  -7.76158 3.59287 1.1373
LeftLeg  6.48029 13.2265 0.639887
LeftFoot  3.38756 -0.0274397 0.919154
LeftToes  -18.8468 1.48347e-006 1.01831e-007
423
root  -12.7081 34.6026 -17.2519 -170.744 0.194839 -179.979
RightUpLeg  -8.99948 -14.6098 -0.455396
RightLeg  5.94627 -1.11218 -0.0428077
RightFoot  4.08228 0.010653 0.0657626
RightToes  -23.5453 -0.108165 -0.209785
Spine  -2.65853 0.255286 0.267857
Spine1  -5.40765 0.612229 1.08335
HEad  -64.9984 2.48766 3.58946
LeftShoulder1  -1.94126e-019 -3.10601e-018 -2.51263e-017
LeftArm  -11.4755 25.241 -83.011
LeftForeArm  32.1595 -14.6046 -2.41422
LeftHand  -0.295431 -0.754539 5.64198
RightShoulder  -4.96962e-017 0 -2.36833e-017
RightArm  -25.1457 -24.5605 77.7144
RightForeArm  46.8404 14.9799 1.34026
RightHand  -0.202527 -2.8229 -8.42934
LeftUpLeg  -7.786 3.41163 1.17057
LeftLeg  6.39295 13.1636 0.616969
LeftFoot  3.47308 -0.0285099 0.935788
LeftToes  -18.9191 1.48347e-006 1.01831e-007
424
root  -12.6975 34.6057 -17.2398 -170.721 -0.0372772 -179.992
RightUpLeg  -8.99979 -14.7821 -0.427227
RightLeg  5.92452 -1.16739 -0.0445421
RightFoot  4.06269 0.0108687 0.0626802
RightToes  -23.4987 -0.108165 -0.209785
Spine  -2.63501 0.252931 0.253476
Spine1  -5.36063 0.609217 1.05857
HEad  -65.1253 2.49769 3.49238
LeftShoulder1  -1.94126e-019 -3.10601e-018 -2.51263e-017
LeftArm  -11.4306 25.1714 -82.9367
LeftForeArm  32.2435 -14.658 -2.42321
LeftHand  -0.294584 -0.807301 5.6346
RightShoulder  -4.96962e-017 0 -2.36833e-017
RightArm  -25.0157 -24.5094 77.7128
RightForeArm  46.7114 15.062 1.33898
RightHand  -0.203527 -2.79468 -8.37456
LeftUpLeg  -7.81851 3.29755 1.19209
LeftLeg  6.30164 13.0528 0.59121
LeftFoot  3.52414 -0.0288244 0.940677
LeftToes  -18.957 1.48347e-006 1.01831e-007
425
root  -12.6872 34.6076 -17.2274 -170.706 -0.191956 179.987
RightUpLeg  -9.02516 -14.8763 -0.41443
RightLeg  5.94613 -1.22322 -0.0471827
RightFoot  4.04576 0.0109638 0.0613217
RightToes  -23.5622 -0.108165 -0.209785
Spine  -2.60908 0.274192 0.237015
Spine1  -5.30895 0.652384 1.02891
HEad  -65.2542 2.46425 3.53644
LeftShoulder1  -1.94126e-019 -3.10601e-018 -2.51263e-017
LeftArm  -11.4177 25.1077 -82.8802
LeftForeArm  32.2165 -14.782 -2.43988
LeftHand  -0.288989 -0.717794 5.60233
RightShoulder  -4.96962e-017 0 -2.36833e-017
RightArm  -24.837 -24.4879 77.6841
RightForeArm  46.7038 15.1486 1.33456
RightHand  -0.204672 -2.8403 -8.32233
LeftUpLeg  -7.83679 3.29518 1.19524
LeftLeg  6.22171 12.9136 0.567115
LeftFoot  3.56121 -0.0287847 0.940061
LeftToes  -19.0076 1.48347e-006 1.01831e-007
426
root  -12.6748 34.6084 -17.2177 -170.69 -0.246109 179.969
RightUpLeg  -9.07518 -14.8862 -0.403701
RightLeg  5.99825 -1.26736 -0.0500742
RightFoot  3.99314 0.011029 0.0603899
RightToes  -23.507 -0.108165 -0.209785
Spine  -2.59223 0.314065 0.223035
Spine1  -5.27547 0.731679 1.00209
HEad  -65.3625 2.43943 3.62953
LeftShoulder1  -1.94126e-019 -3.10601e-018 -2.51263e-017
LeftArm  -11.5379 25.0812 -82.9187
LeftForeArm  32.1706 -14.7546 -2.43315
LeftHand  -0.32143 -0.647252 6.28835
RightShoulder  -4.96962e-017 0 -2.36833e-017
RightArm  -24.7164 -24.4541 77.6254
RightForeArm  46.8238 15.1349 1.33185
RightHand  -0.201674 -2.74863 -8.40561
LeftUpLeg  -7.85649 3.14929 1.20344
LeftLeg  6.19037 13.0005 0.563812
LeftFoot  3.58338 -0.0294629 0.950602
LeftToes  -19.0839 1.48347e-006 1.01831e-007
427
root  -12.6668 34.6081 -17.2159 -170.681 -0.251007 179.957
RightUpLeg  -9.10996 -14.8826 -0.400439
RightLeg  6.04796 -1.28207 -0.0517784
RightFoot  3.94843 0.0110678 0.0598358
RightToes  -23.5139 -0.108165 -0.209785
Spine  -2.58713 0.33294 0.218633
Spine1  -5.26535 0.769772 0.993714
HEad  -65.3648 2.44417 3.68571
LeftShoulder1  -1.94126e-019 -3.10601e-018 -2.51263e-017
LeftArm  -11.6041 25.1341 -82.9106
LeftForeArm  32.0749 -14.7837 -2.43502
LeftHand  -0.301811 -0.51355 6.03096
RightShoulder  -4.96962e-017 0 -2.36833e-017
RightArm  -24.6525 -24.4262 77.5631
RightForeArm  46.8865 15.1146 1.33121
RightHand  -0.202291 -2.77149 -8.36568
LeftUpLeg  -7.85918 3.01361 1.2057
LeftLeg  6.17463 13.1285 0.565698
LeftFoot  3.60839 -0.0303704 0.964707
LeftToes  -19.1872 1.48347e-006 1.01831e-007
428
root  -12.6523 34.606 -17.2105 -170.681 -0.227432 179.938
RightUpLeg  -9.1942 -14.7958 -0.395594
RightLeg  6.20236 -1.34315 -0.0579123
RightFoot  3.8548 0.0110835 0.0596106
RightToes  -23.4978 -0.108165 -0.209785
Spine  -2.56969 0.351442 0.221978
Spine1  -5.23104 0.807762 1.00032
HEad  -65.3308 2.46496 3.71594
LeftShoulder1  -1.94126e-019 -3.10601e-018 -2.51263e-017
LeftArm  -11.7433 25.2246 -82.9457
LeftForeArm  31.984 -14.6986 -2.41578
LeftHand  -0.30451 -0.49801 6.09896
RightShoulder  -4.96962e-017 0 -2.36833e-017
RightArm  -24.6057 -24.3894 77.4268
RightForeArm  46.9072 15.1267 1.32995
RightHand  -0.200234 -2.74024 -8.41853
LeftUpLeg  -7.86449 2.88719 1.21338
LeftLeg  6.19021 13.2663 0.575114
LeftFoot  3.58915 -0.0306381 0.968868
LeftToes  -19.1527 1.48347e-006 1.01831e-007
429
root  -12.6408 34.604 -17.21 -170.665 -0.158264 179.929
RightUpLeg  -9.27873 -14.6656 -0.387283
RightLeg  6.32427 -1.4105 -0.0638695
RightFoot  3.75587 0.0110797 0.0596652
RightToes  -23.3733 -0.108165 -0.209785
Spine  -2.56992 0.359038 0.236373
Spine1  -5.23128 0.823895 1.02938
HEad  -65.2777 2.47403 3.70616
LeftShoulder1  -1.94126e-019 -3.10601e-018 -2.51263e-017
LeftArm  -11.8169 25.3544 -82.9882
LeftForeArm  31.9414 -14.5655 -2.38907
LeftHand  -0.319667 -0.585455 6.31346
RightShoulder  -4.96962e-017 0 -2.36833e-017
RightArm  -24.5167 -24.3955 77.2674
RightForeArm  46.8396 15.1711 1.32951
RightHand  -0.199727 -2.75646 -8.41787
LeftUpLeg  -7.87717 2.92207 1.21369
LeftLeg  6.20421 13.2998 0.579771
LeftFoot  3.56446 -0.0305585 0.96763
LeftToes  -19.0896 1.48347e-006 1.01831e-007
430
root  -12.6263 34.6008 -17.2174 -170.652 -0.0753479 179.922
RightUpLeg  -9.337 -14.6434 -0.373681
RightLeg  6.41271 -1.34227 -0.0628013
RightFoot  3.7007 0.0110597 0.0599508
RightToes  -23.3983 -0.108165 -0.209785
Spine  -2.57138 0.343465 0.251577
Spine1  -5.2342 0.794109 1.05887
HEad  -65.2528 2.51379 3.68561
LeftShoulder1  -1.94126e-019 -3.10601e-018 -2.51263e-017
LeftArm  -11.8846 25.4839 -83.0058
LeftForeArm  31.8604 -14.3727 -2.35934
LeftHand  -0.301339 -0.430679 6.09978
RightShoulder  -4.96962e-017 0 -2.36833e-017
RightArm  -24.5093 -24.3688 77.1063
RightForeArm  46.8715 15.1644 1.32895
RightHand  -0.200209 -2.7198 -8.37115
LeftUpLeg  -7.88422 2.90041 1.2251
LeftLeg  6.24495 13.4002 0.593529
LeftFoot  3.53219 -0.0302995 0.963605
LeftToes  -19.0905 1.48347e-006 1.01831e-007
431
root  -12.6109 34.5977 -17.2256 -170.629 0.0133667 179.917
RightUpLeg  -9.38527 -14.5936 -0.354177
RightLeg  6.46754 -1.30873 -0.0624582
RightFoot  3.65251 0.011027 0.0604185
RightToes  -23.401 -0.108165 -0.209785
Spine  -2.57415 0.318934 0.274194
Spine1  -5.23965 0.746476 1.10402
HEad  -65.3147 2.59908 3.71959
LeftShoulder1  -1.94126e-019 -3.10601e-018 -2.51263e-017
LeftArm  -11.9837 25.6006 -83.0259
LeftForeArm  31.9513 -14.1241 -2.31802
LeftHand  -0.316234 -0.539161 6.29104
RightShoulder  -4.96962e-017 0 -2.36833e-017
RightArm  -24.5254 -24.3497 76.9203
RightForeArm  46.8445 15.1712 1.32904
RightHand  -0.200286 -2.73396 -8.34678
LeftUpLeg  -7.90394 2.95073 1.23452
LeftLeg  6.2969 13.4399 0.607347
LeftFoot  3.49337 -0.0298499 0.956617
LeftToes  -19.0569 1.48347e-006 1.01831e-007
